HIERARCHY
ROOT root
{
	OFFSET	0	13.1	24.9
	CHANNELS 6  Xposition Yposition Zposition Xrotation Yrotation Zrotation
	JOINT spine_1
	{
		OFFSET	0	9.99999	0
		CHANNELS 3  Xrotation Yrotation Zrotation
		JOINT spine_2
		{
			OFFSET	0	112	-10
			CHANNELS 3  Xrotation Yrotation Zrotation
			JOINT spine_3
			{
				OFFSET	0	206.5	19.3
				CHANNELS 3  Xrotation Yrotation Zrotation
				JOINT spine_4
				{
					OFFSET	0	110.4	14.6
					CHANNELS 3  Xrotation Yrotation Zrotation
					JOINT neck_1
					{
						OFFSET	0	71.8	-50.3
						CHANNELS 3  Xrotation Yrotation Zrotation
						JOINT neck_2
						{
							OFFSET	0	86.2	-25.8
							CHANNELS 3  Xrotation Yrotation Zrotation
							JOINT head_ee
							{
								OFFSET	0	179.8	-8.7
								CHANNELS 3  Xrotation Yrotation Zrotation
								End Site
								{
									OFFSET	1	0	0
								}
							}
						}
					}
					JOINT left_clavicle
					{
						OFFSET	-43.2	22.4	-70.8
						CHANNELS 3  Xrotation Yrotation Zrotation
						JOINT left_shoulder
						{
							OFFSET	-93.9	-5.79999	48.7
							CHANNELS 3  Xrotation Yrotation Zrotation
							JOINT left_elbow
							{
								OFFSET	-291.4	-30.8	15.2
								CHANNELS 3  Xrotation Yrotation Zrotation
								JOINT left_lowarm_twist
								{
									OFFSET	-110.7	-3.89999	13.6
									CHANNELS 3  Xrotation Yrotation Zrotation
									JOINT left_hand
									{
										OFFSET	-110.7	-3.89999	13.6
										CHANNELS 3  Xrotation Yrotation Zrotation
										JOINT left_ee
										{
											OFFSET	-80.8	-5.10001	12.1
											CHANNELS 3  Xrotation Yrotation Zrotation
											End Site
											{
												OFFSET	1	0	0
											}
										}
									}
								}
							}
						}
					}
					JOINT right_clavicle
					{
						OFFSET	43.2	22.4	-70.8
						CHANNELS 3  Xrotation Yrotation Zrotation
						JOINT right_shoulder
						{
							OFFSET	93.9	-5.79999	48.7
							CHANNELS 3  Xrotation Yrotation Zrotation
							JOINT right_elbow
							{
								OFFSET	291.4	-30.8	15.2
								CHANNELS 3  Xrotation Yrotation Zrotation
								JOINT right_lowarm_twist
								{
									OFFSET	110.7	-3.89999	13.6
									CHANNELS 3  Xrotation Yrotation Zrotation
									JOINT right_hand
									{
										OFFSET	110.7	-3.89999	13.6
										CHANNELS 3  Xrotation Yrotation Zrotation
										JOINT right_ee
										{
											OFFSET	80.8	-5.10001	12.1
											CHANNELS 3  Xrotation Yrotation Zrotation
											End Site
											{
												OFFSET	1	0	0
											}
										}
									}
								}
							}
						}
					}
				}
			}
		}
	}
	JOINT left_hip
	{
		OFFSET	-82.8	-127.5	0.300001
		CHANNELS 3  Xrotation Yrotation Zrotation
		JOINT left_knee
		{
			OFFSET	-28.2	-396.7	2.2
			CHANNELS 3  Xrotation Yrotation Zrotation
			JOINT left_ankle
			{
				OFFSET	-11.7	-411.3	35.4
				CHANNELS 3  Xrotation Yrotation Zrotation
				JOINT left_toes
				{
					OFFSET	0	-60	-88.6
					CHANNELS 3  Xrotation Yrotation Zrotation
					JOINT left_foot_ee
					{
						OFFSET	-22.5	-16.5	-42.2
						CHANNELS 3  Xrotation Yrotation Zrotation
						End Site
						{
							OFFSET	1	0	0
						}
					}
				}
			}
		}
	}
	JOINT right_hip
	{
		OFFSET	82.8	-127.5	0.300001
		CHANNELS 3  Xrotation Yrotation Zrotation
		JOINT right_knee
		{
			OFFSET	28.2	-396.7	2.2
			CHANNELS 3  Xrotation Yrotation Zrotation
			JOINT right_ankle
			{
				OFFSET	11.7	-411.3	35.4
				CHANNELS 3  Xrotation Yrotation Zrotation
				JOINT right_toes
				{
					OFFSET	0	-60	-88.6
					CHANNELS 3  Xrotation Yrotation Zrotation
					JOINT right_foot_ee
					{
						OFFSET	22.5	-16.5	-42.2
						CHANNELS 3  Xrotation Yrotation Zrotation
						End Site
						{
							OFFSET	1	0	0
						}
					}
				}
			}
		}
	}
}
MOTION
Frames: 16
Frame Time: 0.02
3537.6773394 724.783 -1529.49915 -10.5508903532 47.3887708948 7.29746533047 3.25309 0.514714 0.394484 3.25304 0.488569 0.426437 3.25672 0.416937 0.496701 3.25671 0.490149 0.42462 -15.5172 17.7632 0.553297 -16.741 33.6973 7.09711 -0.0 0.0 -0.0 -0.997392 23.6724 1.37926 -23.3038 -13.2704 65.6792 1.65158 -39.2849 0.589515 -32.514 -2.19246 3.47284 -0.692512 1.3127 -4.05836 -0.0 0.0 -0.0 14.1718 25.9545 -28.4116 -14.7402 14.4796 -62.724 0.683137 18.6962 -0.112458 78.926 3.71528 8.54807 -3.74477 -27.5595 9.72931 0.0 0.0 0.0 27.6804 39.9004 -18.9681 -39.3863 -0.428186 5.91219 31.7567 -7.80237 -4.19226 16.6051 -0.0 -0.0 -0.0 0.0 -0.0 5.31471 5.68745 0.020507 -11.1515 -0.296145 -1.68307 36.782 31.0859 5.66736 -10.4358 0.0 0.0 0.0 0.0 0.0 
3530.92146464 722.652 -1530.39795687 -10.1646171862 48.9579392242 7.00739594262 3.1364 0.416359 0.406545 3.1364 0.389646 0.432215 3.13936 0.317305 0.487802 3.13924 0.390361 0.431569 -16.6613 18.009 1.70753 -18.0341 33.609 8.66274 -0.0 0.0 -0.0 -1.20545 24.14 1.16344 -26.7497 -14.8688 66.0441 1.64548 -39.1812 0.58566 -33.6144 -2.29906 3.56536 -0.652206 1.84893 -3.55688 -0.0 0.0 -0.0 13.8143 25.9781 -27.5715 -11.3927 15.4096 -63.9872 0.696418 19.0337 -0.116752 78.7697 3.69745 8.5389 -3.70724 -25.869 10.555 0.0 0.0 0.0 28.1784 34.2227 -17.2515 -41.5397 -0.567616 6.21246 31.8693 -3.77097 -4.14348 15.495 -0.0 -0.0 -0.0 0.0 -0.0 3.81449 5.62017 0.856183 -10.9468 -0.293677 -1.65175 37.1364 32.0892 5.77966 -10.2189 0.0 0.0 0.0 0.0 0.0 
3525.59723141 724.575 -1530.21525451 -10.1920275688 52.74848586 7.00254793277 3.04698 0.267005 0.610319 3.04716 0.227629 0.626071 3.04961 0.125949 0.654152 3.04908 0.227678 0.626053 -18.4617 17.7531 3.15439 -19.9481 32.4919 10.4706 -0.0 0.0 -0.0 -1.09731 23.9773 1.28626 -27.7702 -13.6501 66.3291 1.58618 -38.1555 0.548604 -32.216 -2.16391 3.44744 -0.823625 2.34888 -4.47938 -0.0 0.0 -0.0 14.2176 25.7374 -28.5459 -9.84067 16.0982 -62.7252 0.746663 20.2982 -0.133663 78.7001 3.68951 8.5348 -3.77516 -25.7342 11.0253 0.0 0.0 0.0 30.7808 31.4698 -17.6483 -42.8186 -0.655753 6.38829 29.4463 -3.35312 -3.88207 13.5009 -0.0 -0.0 -0.0 0.0 -0.0 3.36312 5.21468 1.06245 -11.6673 -0.301865 -1.762 37.0435 32.7373 5.81985 -10.9008 0.0 0.0 0.0 0.0 0.0 
3522.7100765 728.854 -1529.0010679 -11.5037568353 54.0316279144 8.01463194927 3.16901 0.353402 0.693318 3.16923 0.308569 0.714399 3.17302 0.193564 0.753731 3.17237 0.31017 0.713705 -20.4884 17.4827 3.95968 -22.1401 31.733 11.7518 -0.0 0.0 -0.0 -0.952709 23.798 1.45732 -28.9783 -13.5263 66.6349 1.5269 -37.1006 0.51241 -31.6961 -2.1144 3.40277 -0.903191 3.18489 -4.6407 -0.0 0.0 -0.0 14.3165 26.2482 -28.7147 -8.10465 16.6937 -62.6457 0.796462 21.5313 -0.151441 78.6356 3.68215 8.53099 -3.61365 -24.2261 11.0131 0.0 0.0 0.0 31.7592 27.4219 -16.7137 -43.6551 -0.715525 6.50223 27.9391 -1.94593 -3.70238 10.8939 -0.0 -0.0 -0.0 0.0 -0.0 3.32806 5.0842 1.32998 -9.3227 -0.270141 -1.40367 36.8288 32.2246 5.75698 -11.9553 0.0 0.0 0.0 0.0 0.0 
3515.56941403 726.458 -1528.05287437 -11.8168934798 56.6712928264 8.48740302892 3.05198 0.279319 0.664873 3.05219 0.236447 0.681298 3.05495 0.126006 0.710067 3.05433 0.236564 0.681257 -22.3099 17.1416 4.54663 -24.0782 30.9353 12.7068 -0.0 0.0 -0.0 -0.858189 23.4558 1.53972 -29.691 -13.323 66.7869 1.43701 -35.4432 0.459229 -31.2665 -2.0738 3.36553 -0.973838 3.96738 -4.76335 -0.0 0.0 -0.0 14.1967 26.2324 -28.4352 -5.52849 17.4987 -62.6101 0.841556 22.6302 -0.168393 78.601 3.67822 8.52895 -3.42327 -22.9044 10.6842 0.0 0.0 0.0 33.1186 24.3659 -16.5943 -41.4774 -0.563422 6.20384 26.1915 -0.233707 -3.49179 8.90428 -0.0 -0.0 -0.0 0.0 -0.0 2.35174 3.45469 1.55196 -9.80023 -0.277791 -1.47654 37.3323 30.5034 5.68391 -12.3157 0.0 0.0 0.0 0.0 0.0 
3508.61850556 729.888 -1527.02020873 -12.0448434178 58.2381256084 8.75745765482 3.10962 0.329737 0.737625 3.10988 0.282133 0.757111 3.11354 0.159976 0.791973 3.11278 0.283042 0.756771 -23.7518 16.8028 5.15058 -25.5656 30.1142 13.5271 -0.0 0.0 -0.0 -0.826057 23.7901 1.62826 -30.6614 -13.1185 66.9718 1.3669 -34.101 0.419239 -31.0559 -2.054 3.34715 -1.04549 4.78377 -4.87455 -0.0 0.0 -0.0 14.1573 26.4021 -28.3213 -3.57503 18.0939 -62.7739 0.874914 23.432 -0.181444 78.8467 3.70623 8.54343 -3.34991 -22.2955 10.6059 0.0 0.0 0.0 34.6885 22.2078 -16.3625 -36.6584 -0.267975 5.52479 22.3843 -0.110497 -3.04456 6.8775 -0.0 -0.0 -0.0 0.0 -0.0 1.7694 3.50739 1.91402 -9.65973 -0.275603 -1.45509 36.4979 31.0736 5.63601 -13.8878 0.0 0.0 0.0 0.0 0.0 
3503.13195885 731.08 -1526.6250989 -13.1205195133 60.046964074 10.1242133084 3.15151 0.444385 0.718523 3.15171 0.397764 0.745343 3.15685 0.276638 0.79826 3.15618 0.399233 0.744557 -25.3188 16.5505 5.07074 -27.2743 29.7519 13.8293 -0.0 0.0 -0.0 -0.653204 24.0011 1.89003 -31.1145 -12.9792 66.9283 1.27301 -32.2346 0.367866 -31.122 -2.0602 3.35292 -1.10144 5.45097 -4.94568 -0.0 0.0 -0.0 14.0591 25.9946 -28.1422 -1.02139 18.9041 -63.3707 0.945279 25.0916 -0.21036 78.9396 3.71684 8.54887 -3.05726 -20.8055 9.70965 0.0 0.0 0.0 35.5343 20.0714 -15.1717 -30.7704 0.013787 4.6658 20.1245 -0.035041 -2.76754 5.06602 -0.0 -0.0 -0.0 0.0 -0.0 1.46129 2.81123 1.72155 -9.18181 -0.267768 -1.38218 36.6762 30.491 5.61377 -14.9992 0.0 0.0 0.0 0.0 0.0 
3496.42597697 730.16 -1524.14371138 -15.3772379484 61.2443171454 12.3085803429 3.32669 0.295632 0.753794 3.32697 0.247068 0.771077 3.3302 0.126178 0.7998 3.3294 0.250904 0.769838 -26.0598 16.1448 4.52258 -28.0407 29.2226 13.3234 -0.0 0.0 -0.0 -0.502495 23.8971 2.0809 -31.8891 -12.3191 67.8992 1.16105 -29.9044 0.310075 -31.1476 -2.06262 3.35516 -1.04217 5.78064 -4.40934 -0.0 0.0 -0.0 13.9023 25.583 -27.8249 0.760816 19.1467 -63.4271 1.03041 27.0408 -0.247774 79.4129 3.77102 8.57633 -2.47985 -19.1398 7.13289 0.0 0.0 0.0 34.443 18.8548 -13.8304 -21.5989 0.273213 3.28366 18.3142 -0.429791 -2.54241 3.63544 -0.0 -0.0 -0.0 0.0 -0.0 2.02407 1.24561 1.57152 -8.77326 -0.260587 -1.3199 36.7082 29.5402 5.55209 -16.706 0.0 0.0 0.0 0.0 0.0 
3496.03197449 730.16 -1523.51626811 -15.6030716153 61.6873848325 12.5656361443 3.32669 0.295632 0.753794 3.32697 0.247068 0.771077 3.3302 0.126178 0.7998 3.3294 0.250904 0.769838 -26.0598 16.1448 4.52258 -28.0407 29.2226 13.3234 -0.0 0.0 -0.0 -0.502495 23.8971 2.0809 -31.8891 -12.3191 67.8992 1.16105 -29.9044 0.310075 -31.1476 -2.06262 3.35516 -1.04217 5.78064 -4.40934 -0.0 0.0 -0.0 13.9023 25.583 -27.8249 0.760816 19.1467 -63.4271 1.03041 27.0408 -0.247774 79.4129 3.77102 8.57633 -2.47985 -19.1398 7.13289 0.0 0.0 0.0 34.443 18.8548 -13.8304 -21.5989 0.273213 3.28366 18.3142 -0.429791 -2.54241 3.63544 -0.0 -0.0 -0.0 0.0 -0.0 2.02407 1.24561 1.57152 -8.77326 -0.260587 -1.3199 36.7082 29.5402 5.55209 -16.706 0.0 0.0 0.0 0.0 0.0 
3489.48436986 728.973 -1522.09371959 -16.3620676493 62.9684325717 13.1791590977 3.40323 0.343693 0.809049 3.40355 0.291517 0.829277 3.40765 0.162371 0.863895 3.40673 0.296765 0.827414 -27.212 15.8157 4.34237 -29.2479 28.692 13.3143 -0.0 0.0 -0.0 -0.548854 24.3628 2.07622 -32.9042 -12.2849 67.9457 1.07032 -27.932 0.266193 -31.1114 -2.05921 3.352 -1.06048 6.41572 -4.24678 -0.0 0.0 -0.0 13.8183 25.9289 -27.5867 2.0303 19.4302 -63.2844 1.09499 28.4757 -0.277853 79.1836 3.74475 8.56308 -2.28237 -18.4187 6.3073 0.0 0.0 0.0 34.0318 17.8906 -13.0853 -17.0671 0.319025 2.59001 17.0936 -0.0457259 -2.384 2.86696 -0.0 -0.0 -0.0 0.0 -0.0 1.54855 -0.197865 1.92255 -8.6334 -0.258027 -1.29859 36.8904 28.2507 5.48748 -17.6313 0.0 0.0 0.0 0.0 0.0 
3478.77942372 730.59 -1519.85156324 -17.5977986264 65.1290734337 14.3201106132 3.5045 0.38705 0.755358 3.50476 0.338202 0.778455 3.50926 0.217684 0.820355 3.50849 0.344508 0.775684 -27.3221 15.5886 3.72331 -29.3554 28.4901 12.6401 -0.0 0.0 -0.0 -0.857713 24.9342 1.73847 -34.5309 -11.886 68.6021 1.00489 -26.4633 0.236287 -31.176 -2.06528 3.35764 -1.05673 6.75679 -4.07039 -0.0 0.0 -0.0 13.731 25.8958 -27.387 3.20715 19.351 -63.0867 1.14201 29.4967 -0.30064 79.2674 3.75434 8.56793 -2.04477 -17.475 5.33278 0.0 0.0 0.0 34.0371 16.9412 -12.3411 -13.0377 0.313609 1.97193 16.2491 -0.134363 -2.27511 2.22154 -0.0 -0.0 -0.0 0.0 -0.0 0.757813 -0.355085 2.40289 -8.73461 -0.259885 -1.31401 36.952 27.7818 5.46467 -18.3773 0.0 0.0 0.0 0.0 0.0 
3478.308227 730.59 -1518.8389831 -18.002154991 65.7052245577 14.7647646636 3.5045 0.38705 0.755358 3.50476 0.338202 0.778455 3.50926 0.217684 0.820355 3.50849 0.344508 0.775684 -27.3221 15.5886 3.72331 -29.3554 28.4901 12.6401 -0.0 0.0 -0.0 -0.857713 24.9342 1.73847 -34.5309 -11.886 68.6021 1.00489 -26.4633 0.236287 -31.176 -2.06528 3.35764 -1.05673 6.75679 -4.07039 -0.0 0.0 -0.0 13.731 25.8958 -27.387 3.20715 19.351 -63.0867 1.14201 29.4967 -0.30064 79.2674 3.75434 8.56793 -2.04477 -17.475 5.33278 0.0 0.0 0.0 34.0371 16.9412 -12.3411 -13.0377 0.313609 1.97193 16.2491 -0.134363 -2.27511 2.22154 -0.0 -0.0 -0.0 0.0 -0.0 0.757813 -0.355085 2.40289 -8.73461 -0.259885 -1.31401 36.952 27.7818 5.46467 -18.3773 0.0 0.0 0.0 0.0 0.0 
3467.19580965 728.745 -1514.04888482 -19.4024230914 66.4482174276 16.2034494419 3.55213 0.452668 0.803348 3.5524 0.400634 0.830522 3.55811 0.272365 0.880958 3.55726 0.408073 0.826892 -26.9968 15.5754 3.49916 -29.0082 28.5462 12.3287 -0.0 0.0 -0.0 -1.02017 25.383 1.58549 -35.32 -11.7099 69.489 0.955595 -25.3312 0.214755 -31.2288 -2.07025 3.36224 -1.06142 6.99094 -3.99678 -0.0 0.0 -0.0 13.6517 25.8449 -27.208 4.10744 19.6206 -63.1197 1.22977 31.3481 -0.345082 79.3835 3.76765 8.57463 -1.71558 -16.5664 3.75806 0.0 0.0 0.0 35.3872 15.8333 -12.9344 -8.39737 0.253588 1.26264 13.652 -0.0255418 -1.93193 1.34144 -0.0 -0.0 -0.0 0.0 -0.0 0.520785 -1.67359 2.79361 -8.77604 -0.260637 -1.32032 37.4165 27.341 5.48529 -18.8847 0.0 0.0 0.0 0.0 0.0 
3439.93870812 719.993 -1505.83164358 -25.1373460292 69.6106053292 22.2134832441 3.78293 0.405135 0.787179 3.7832 0.354225 0.811361 3.78809 0.232755 0.854168 3.78726 0.36473 0.806694 -23.914 15.6466 1.97253 -25.7138 29.2687 10.0515 -0.0 0.0 -0.0 -1.47229 24.7056 0.889777 -35.9415 -10.3306 71.6072 0.891696 -23.8317 0.188171 -33.098 -2.24881 3.52219 -1.19896 9.15009 -3.9225 -0.0 0.0 -0.0 13.3509 23.2976 -26.7842 4.82248 20.2497 -61.0698 1.54515 37.4286 -0.523463 79.0228 3.72635 8.55373 -0.0763759 -12.0222 -4.47287 0.0 0.0 0.0 36.0291 14.1241 -10.9271 3.8859 -0.179416 -0.56912 0.977798 -7.0351 -0.148076 0.217451 -0.0 -0.0 -0.0 0.0 -0.0 -0.603968 -1.55316 3.12021 -8.93874 -0.263549 -1.34512 37.9535 28.6688 5.62317 -18.3412 0.0 0.0 0.0 0.0 0.0 
3364.10599033 699.608 -1487.94815939 -33.1906281573 70.0566103824 31.7079390906 4.28136 0.649944 0.752359 4.28147 0.600754 0.79219 4.2897 0.487093 0.866721 4.28919 0.617859 0.778923 -22.3281 12.1296 0.565428 -23.301 23.1241 6.3451 -0.0 0.0 -0.0 -1.0063 23.9046 1.39932 -35.0968 -9.82363 72.0388 0.495431 -13.7893 0.0599072 -34.4527 -2.38145 3.63446 1.00564 9.18009 10.3394 -0.0 0.0 -0.0 12.8903 22.5137 -25.7864 8.8575 21.1077 -57.3273 1.96663 44.2467 -0.799564 79.2612 3.75363 8.56757 1.99756 -4.62683 -15.2688 0.0 0.0 0.0 40.8273 11.7394 -9.68546 2.59937 -0.115737 -0.382032 -0.155813 -15.2218 0.0249005 4.10532 -0.0 -0.0 -0.0 0.0 -0.0 -2.11041 -0.910522 3.31699 -12.8895 -0.312581 -1.94922 39.1133 24.9046 5.51123 -13.3939 0.0 0.0 0.0 0.0 0.0 
3349.77210151 701.378 -1484.90146511 -34.6589673133 69.709093421 33.5143134622 4.27312 0.521537 0.525718 4.27314 0.487028 0.557839 4.27787 0.406248 0.619146 4.27768 0.49893 0.547219 -22.7559 11.723 0.940497 -23.6686 22.1739 6.56623 -0.0 0.0 -0.0 -0.75429 23.6447 1.70666 -34.3175 -9.75718 71.9613 0.489854 -13.6399 0.0585851 -34.5045 -2.38658 3.63869 1.48929 8.00948 13.0988 -0.0 0.0 -0.0 12.7049 22.7101 -25.3389 9.62549 20.433 -58.3784 1.98306 44.4849 -0.811051 78.2596 3.63939 8.50863 2.10156 -4.59015 -15.9676 0.0 0.0 0.0 40.9621 11.767 -8.96118 1.36175 -0.058466 -0.200779 0.903128 -16.6584 -0.14555 4.37869 -0.0 -0.0 -0.0 0.0 -0.0 -1.87798 1.43151 3.40342 -13.509 -0.316487 -2.04419 38.5844 23.8197 5.40303 -13.5039 0.0 0.0 0.0 0.0 0.0 
